<?xml version="1.0" encoding="utf-8"?>
<!-- Generator: Adobe Illustrator 19.0.0, SVG Export Plug-In . SVG Version: 6.00 Build 0)  -->
<svg version="1.1" id="图层_1" xmlns="http://www.w3.org/2000/svg" xmlns:xlink="http://www.w3.org/1999/xlink" x="0px" y="0px"
	 viewBox="0 0 28.8 27.8" style="enable-background:new 0 0 28.8 27.8;" xml:space="preserve">
<style type="text/css">
	.st0{fill:#A1A1A1;}
</style>
<g id="XMLID_79_">
	<path id="XMLID_80_" class="st0" d="M26.7,2.1c-0.3-0.3-0.6-0.4-1-0.4h-8.8c-0.8,0-1.5,0.7-1.5,1.5c0,0.8,0.7,1.5,1.5,1.5h5.2l-6,6
		c-0.6,0.6-0.5,1.5,0,2c0.6,0.6,1.5,0.6,2,0l6-6v5.2c0,0.8,0.7,1.5,1.5,1.5c0.8,0,1.5-0.7,1.5-1.5V3.1C27.2,2.7,27,2.4,26.7,2.1z"/>
	<path id="XMLID_84_" class="st0" d="M12.4,23.7H7.2l6-6c0.6-0.6,0.5-1.5,0-2c-0.6-0.6-1.5-0.6-2,0l-6,6v-5.2c0-0.8-0.7-1.5-1.5-1.5
		c-0.8,0-1.5,0.7-1.5,1.5v8.8c0,0.4,0.2,0.8,0.4,1c0.3,0.3,0.6,0.4,1,0.4h8.8c0.8,0,1.5-0.7,1.5-1.5C13.9,24.4,13.2,23.7,12.4,23.7z
		"/>
</g>
</svg>
