<?xml version="1.0" encoding="utf-8"?>
<!-- Generator: Adobe Illustrator 19.0.0, SVG Export Plug-In . SVG Version: 6.00 Build 0)  -->
<svg version="1.1" id="图层_1" xmlns="http://www.w3.org/2000/svg" xmlns:xlink="http://www.w3.org/1999/xlink" x="0px" y="0px"
	 viewBox="1 -1 32 32" style="enable-background:new 1 -1 32 32;" xml:space="preserve">
<style type="text/css">
	.st0{fill:#666666;}
</style>
<path class="st0" d="M30.2,18.1c-0.9-1-2.4-1-3.3,0c0,0,0.1,0-0.9,1l1.1,1.1l0.5-0.6c0.6-0.6,1.6-0.6,2.2,0l0.6,0.6
	c0.6,0.6,0.6,1.7,0,2.3l-2.7,2.9C27,26,26,26,25.4,25.4L25,24.6c-1-0.7-0.7-0.9-0.6-1.4l-1.2-1.2c-0.9,1-0.9,2.5,0,3.4l1.7,1.7
	c0.9,1,2.4,1,3.3,0l3.7-3.9c1.3-1.6,0-3.4,0-3.4L30.2,18.1z M21.7,27c-0.9,0.8-1.5,0.8-2.1,0.2l-0.7-0.8c-0.6-0.6-0.6-1.7,0-2.3
	l3-3.1c0.6-0.6,1.6-0.6,2.2,0l0.6,0.6c0.5,0.5,0.6,1.2,0.3,1.8l1.3,1.1c0.9-1,0.9-2.5,0-3.4l-1.7-1.7c-0.9-1-2.4-1-3.3,0l-4.1,4.3
	c-0.9,1-0.9,2.5,0,3.4l1.7,1.7c0.9,1,2.4,1,3.3,0l1.6-1.7l-1.1-1.1L21.7,27z M10.6,10.3c-0.4,0-0.7,0.2-0.9,0.5
	c-0.2,0.3-0.2,0.8,0,1.1c0.2,0.3,0.5,0.5,0.9,0.5h9.9c0.6,0,1-0.5,1-1.1c0-0.6-0.5-1.1-1-1.1H10.6z M15.5,17.2h-4.9
	c-0.6,0-1,0.5-1,1.1c0,0.6,0.5,1.1,1,1.1h4.9c0.6,0,1-0.5,1-1.1C16.5,17.7,16,17.2,15.5,17.2z M4.4,25.5c-0.3-0.3-0.5-0.6-0.7-0.9
	c-0.1-0.4-0.2-0.7-0.2-1.1V6.3c0-0.8,0.3-1.5,0.9-2.1c0.5-0.6,1.3-0.9,2.1-0.9h21.1c0.8,0,1.6,0.3,2.1,0.9c0.6,0.6,0.9,1.3,0.9,2.1
	l0,8.1h2l0-9.4c0-1-0.3-1.9-1-2.6c-0.6-0.7-1.5-1.1-2.4-1H4.9c-0.9,0-1.8,0.4-2.4,1C1.8,3.1,1.5,4,1.5,5v19.8c0,0.5,0.1,0.9,0.2,1.4
	c0.2,0.4,0.4,0.8,0.8,1.1c0.3,0.3,0.7,0.6,1.1,0.8c0.4,0.2,1.7,0.3,8.8,0.3v-2c-6.3,0-6.8-0.1-7.1-0.3C5,25.9,4.7,25.7,4.4,25.5z"/>
</svg>
