<?xml version="1.0" encoding="utf-8"?>
<!-- Generator: Adobe Illustrator 19.0.0, SVG Export Plug-In . SVG Version: 6.00 Build 0)  -->
<svg version="1.1" id="图层_1" xmlns="http://www.w3.org/2000/svg" xmlns:xlink="http://www.w3.org/1999/xlink" x="0px" y="0px"
	 viewBox="0 0 30 30" style="enable-background:new 0 0 30 30;" xml:space="preserve">
<style type="text/css">
	.st0{fill:#333333;}
</style>
<g id="XMLID_14_">
	<g id="XMLID_69_">
		<path id="XMLID_70_" class="st0" d="M26.8,0H3.2C1.4,0,0,1.4,0,3.2v18.4C0,23.4,1.2,25,3,25h15l4.5,4.8l0,0c0.3,0.3,0.8,0.3,1.1,0
			c0.3-0.3,0.3-0.8,0-1.1l0,0l-5-5.1C18.5,23.5,18.2,23,18,23H4c-1.2,0-2-0.4-2-2V4c0-1.6,0.4-2,2-2h22c1.6,0,2,0.4,2,2v17
			c0,1.6-0.1,1.9-2,2l-1,0c-0.4,0-1,0.6-1,1c0,0.4,0.6,1,1,1h2c1.8,0,3-1.6,3-3.4V3.2C30,1.4,28.6,0,26.8,0z M17.6,13.5
			c0.8-0.7,1.3-1.3,1.5-1.7c0.2-0.4,0.3-0.9,0.3-1.4c0-0.9-0.4-1.7-1.1-2.4c-0.7-0.6-1.7-0.9-2.8-0.9c-1.1,0-2,0.3-2.7,0.9
			c-0.7,0.6-1.1,1.5-1.2,2.6l0,0c0,0,0,0.1,0,0.1c0,0.4,0.3,0.8,0.8,0.8c0.4,0,0.7-0.3,0.7-0.7l0,0c0.3-1.6,1.1-2.4,2.4-2.4
			c0.7,0,1.2,0.2,1.7,0.7c0.5,0.4,0.7,0.9,0.7,1.5c0,0.3-0.1,0.6-0.2,0.8c-0.1,0.3-0.5,0.6-1,1.1c-0.4,0.4-0.8,0.7-1,0.9
			c-0.2,0.2-0.4,0.5-0.6,0.8c-0.1,0.3-0.2,0.6-0.3,0.9c0,0.3-0.1,0.4-0.1,1.1h0c0,0,0,0,0,0c0,0.4,0.3,0.7,0.7,0.7
			c0.4,0,0.7-0.3,0.7-0.7c0,0,0,0,0-0.1c0-0.8,0.1-1,0.3-1.3C16.6,14.4,17,14,17.6,13.5z M15.5,17.7c-0.2,0-0.4,0.1-0.6,0.2
			c-0.2,0.2-0.2,0.4-0.2,0.6c0,0.2,0.1,0.4,0.2,0.6c0.2,0.2,0.4,0.2,0.6,0.2c0.2,0,0.4-0.1,0.6-0.2c0.2-0.2,0.2-0.4,0.2-0.6
			c0-0.2-0.1-0.4-0.2-0.6C15.9,17.8,15.7,17.7,15.5,17.7z"/>
	</g>
</g>
</svg>
