<?xml version="1.0" encoding="utf-8"?>
<!-- Generator: Adobe Illustrator 19.0.0, SVG Export Plug-In . SVG Version: 6.00 Build 0)  -->
<svg version="1.1" id="图层_1" xmlns="http://www.w3.org/2000/svg" xmlns:xlink="http://www.w3.org/1999/xlink" x="0px" y="0px"
	 viewBox="0 0 28 28" style="enable-background:new 0 0 28 28;" xml:space="preserve">
<style type="text/css">
	.st0{fill:#ACACAC;}
</style>
<path class="st0" d="M12.1,20L24.8,4.4l-1.3-1L10.8,19L12.1,20z M23.8,12.6v7.8c0,1.7-0.8,3-1.6,3H5.8c-0.8,0-1.6-1.3-1.6-3V6.7
	c0-1.7,0.8-3,1.6-3h10V2h-10C3.9,2,2.5,4.1,2.5,6.7v13.6c0,2.6,1.4,4.7,3.3,4.7h16.5c1.8,0,3.3-2.1,3.3-4.7v-7.7H23.8z"/>
</svg>
