<?xml version="1.0" encoding="utf-8"?>
<!-- Generator: Adobe Illustrator 19.0.0, SVG Export Plug-In . SVG Version: 6.00 Build 0)  -->
<svg version="1.1" id="图层_1" xmlns="http://www.w3.org/2000/svg" xmlns:xlink="http://www.w3.org/1999/xlink" x="0px" y="0px"
	 viewBox="0 0 38 36" style="enable-background:new 0 0 38 36;" xml:space="preserve">
<style type="text/css">
	.st0{fill-rule:evenodd;clip-rule:evenodd;}
	.st1{fill-rule:evenodd;clip-rule:evenodd;fill:url(#XMLID_13_);}
</style>
<g id="XMLID_2_">
	<g id="XMLID_50_">
		<path id="XMLID_51_" class="st0" d="M20.5,23.8c6.4,0,11.5-5.1,11.5-11.5c0-6.4-5.1-11.5-11.5-11.5C14.1,0.8,9,5.9,9,12.3
			C9,18.6,14.1,23.8,20.5,23.8z M20,2.8c5.1,0,10,4.9,10,10c0,5.1-3.9,9-9,9c-5.1,0-10-3.9-10-9C11,7.6,14.9,2.8,20,2.8z M20,25.7
			c-7.6,0-14,3.7-16.2,10c-0.1,0,2.1,0,2.2-0.1c2.1-5.1,7.6-7.9,14-7.9c6.4,0,11.9,2.9,14.1,8c0.1,0,2.2,0,2.1,0
			C34,29.4,27.6,25.7,20,25.7z"/>
	</g>
</g>
<linearGradient id="XMLID_13_" gradientUnits="userSpaceOnUse" x1="20.4985" y1="18.2682" x2="20.4985" y2="6.2681">
	<stop  offset="0" style="stop-color:#11CDCD"/>
	<stop  offset="1" style="stop-color:#2DDCA9"/>
</linearGradient>
<path id="XMLID_11_" class="st1" d="M20.5,6.3c3.3,0,6,2.7,6,6c0,3.3-2.7,6-6,6s-6-2.7-6-6C14.5,9,17.2,6.3,20.5,6.3z"/>
</svg>
