<?xml version="1.0" encoding="utf-8"?>
<!-- Generator: Adobe Illustrator 19.0.0, SVG Export Plug-In . SVG Version: 6.00 Build 0)  -->
<svg version="1.1" id="图层_1" xmlns="http://www.w3.org/2000/svg" xmlns:xlink="http://www.w3.org/1999/xlink" x="0px" y="0px"
	 viewBox="0 0 32 32" style="enable-background:new 0 0 32 32;" xml:space="preserve">
<style type="text/css">
	.st0{fill:#666666;}
	.st1{fill-rule:evenodd;clip-rule:evenodd;fill:#666666;}
</style>
<g id="XMLID_2_">
	<g id="XMLID_3_">
		<path id="XMLID_4_" class="st0" d="M27.8,29.2C27.7,29.2,27.7,29.2,27.8,29.2H4.6c0,0,0,0,0,0c-0.6,0-1.1-0.1-1.7-0.4
			c-0.5-0.2-1-0.5-1.4-0.9c-0.4-0.4-0.7-0.9-0.9-1.4c-0.2-0.6-0.3-1.1-0.3-1.7V5.9c0-1.2,0.4-2.3,1.2-3.1c0.8-0.8,1.9-1.3,3-1.3
			h23.1c1.1,0,2.2,0.5,3,1.3c0.8,0.8,1.2,2,1.2,3.1V11h-11c-0.6,0-1.2,0.2-1.6,0.7c-0.7,0.8-1.7,2.3-1.7,2.7c0,0.5,0.1,0.9,0.3,1.4
			c0.1,0.1,0.1,0.3,0.2,0.4c0.2,0.5,0.4,1.2,1.6,2.4c0.3,0.3,0.9,0.3,1.2,0.2l11.1,0v6c0,0.6-0.1,1.1-0.3,1.6
			c-0.2,0.5-0.5,1-0.9,1.4c-0.4,0.4-0.8,0.7-1.3,1C28.9,29.1,28.3,29.2,27.8,29.2z M4.6,27.3h23.2c0.3,0,0.6-0.1,0.9-0.2
			c0.3-0.1,0.5-0.3,0.7-0.5c0.2-0.2,0.4-0.5,0.5-0.8c0.1-0.3,0.2-0.6,0.2-1v-4h-9.1c-1,0.1-1.9-0.2-2.6-0.8
			c-1.5-1.5-1.9-2.6-2.1-3.2c0-0.1,0-0.2-0.1-0.2c-0.3-0.7-0.5-1.4-0.5-2.1c0-1.5,1.8-3.7,2.2-4.1c0.8-0.8,1.8-1.3,3-1.3h9.1V5.9
			c0-0.7-0.2-1.3-0.7-1.8c-0.4-0.5-1-0.8-1.6-0.7H4.5c-0.6,0-1.2,0.2-1.6,0.7C2.4,4.6,2.2,5.2,2.2,5.9v19c0,0.3,0.1,0.7,0.2,1
			c0.1,0.3,0.3,0.5,0.5,0.8c0.2,0.2,0.5,0.4,0.8,0.5C4,27.2,4.3,27.3,4.6,27.3C4.6,27.3,4.6,27.3,4.6,27.3z"/>
	</g>
	<path id="XMLID_13_" class="st1" d="M23.8,13.3c1.1,0,2,0.9,2,2c0,1.1-0.9,2-2,2c-1.1,0-2-0.9-2-2C21.8,14.2,22.7,13.3,23.8,13.3z"
		/>
</g>
</svg>
