<?xml version="1.0" standalone="no"?><!DOCTYPE svg PUBLIC "-//W3C//DTD SVG 1.1//EN" "http://www.w3.org/Graphics/SVG/1.1/DTD/svg11.dtd"><svg t="1517381600514" class="icon" style="" viewBox="0 0 1024 1024" version="1.1" xmlns="http://www.w3.org/2000/svg" p-id="3320" xmlns:xlink="http://www.w3.org/1999/xlink" width="128" height="128"><defs><style type="text/css"></style></defs><path d="M622.293333 341.333333l-110.293333 110.293333-110.293333-110.293333-60.373333 60.373333 110.293333 110.293333-110.293333 110.293333 60.373333 60.373333 110.293333-110.293333 110.293333 110.293333 60.373333-60.373333-110.293333-110.293333 110.293333-110.293333-60.373333-60.373333zM512 85.333333c-235.733333 0-426.666667 190.933333-426.666667 426.666667s190.933333 426.666667 426.666667 426.666667 426.666667-190.933333 426.666667-426.666667-190.933333-426.666667-426.666667-426.666667zM512 853.333333c-188.16 0-341.333333-153.173333-341.333333-341.333333s153.173333-341.333333 341.333333-341.333333 341.333333 153.173333 341.333333 341.333333-153.173333 341.333333-341.333333 341.333333z" p-id="3321" fill="#d81e06"></path></svg>