<?xml version="1.0" encoding="utf-8"?>
<!-- Generator: Adobe Illustrator 19.0.0, SVG Export Plug-In . SVG Version: 6.00 Build 0)  -->
<svg version="1.1" id="图层_1" xmlns="http://www.w3.org/2000/svg" xmlns:xlink="http://www.w3.org/1999/xlink" x="0px" y="0px"
	 viewBox="4 -4.6 36.8 37.6" style="enable-background:new 4 -4.6 36.8 37.6;" xml:space="preserve">
<style type="text/css">
	.st0{fill:#666666;}
</style>
<path class="st0" d="M40,29.7l-5.2-5.6c2.9-3.1,4.7-7.1,4.7-11.6c0-9.4-7.9-17.1-17.6-17.1c-9.6,0-17.5,7.7-17.5,17.1
	S12.3,29.6,22,29.6c3.9,0,7.4-1.2,10.3-3.3l5.2,5.6c0.3,0.3,0.8,0.5,1.2,0.5s0.8-0.1,1.1-0.4C40.6,31.3,40.6,30.3,40,29.7L40,29.7z
	 M7.8,12.5C7.8,4.8,14.1-1.4,22-1.4c7.8,0,14.2,6.2,14.2,13.8S29.8,26.3,22,26.3C14.1,26.3,7.8,20.1,7.8,12.5L7.8,12.5z"/>
</svg>
