<?xml version="1.0" encoding="utf-8"?>
<!-- Generator: Adobe Illustrator 19.0.0, SVG Export Plug-In . SVG Version: 6.00 Build 0)  -->
<svg version="1.1" id="图层_1" xmlns="http://www.w3.org/2000/svg" xmlns:xlink="http://www.w3.org/1999/xlink" x="0px" y="0px"
	 viewBox="0 0 38 36" style="enable-background:new 0 0 38 36;" xml:space="preserve">
<style type="text/css">
	.st0{fill:url(#XMLID_4_);}
</style>
<g id="XMLID_1_">
	<g id="XMLID_3_">
		<g id="XMLID_70_">
			<path id="XMLID_71_" d="M6.8,0.5L6.8,0.5C5,0.5,3.3,0.7,1.4,1.2C0.9,1.4,0.5,1.9,0.5,2.5v29.2c0,0.8,0.6,1.4,1.4,1.2
				c2.9-0.4,9.7-1,15.2,2.5c0.1,0,0.4,0.1,0.4,0.1v-31C16.1,3.5,12.1,0.6,6.8,0.5L6.8,0.5z M15.5,6.5v26c-0.1,0-0.4-0.1-0.4-0.1
				c-4.6-2.2-8.3-2-11.2-1.5c-0.7,0.1-1.4-0.5-1.4-1.2V4.5c0-0.6,0.4-1.1,0.9-1.2C5.3,2.7,5,2.5,6.7,2.5h0.1v0
				C12.1,2.6,14.1,5.5,15.5,6.5z M36.6,1.2c-8-2.3-14.2,1.9-16.1,3.3v31c0.1,0,0.3-0.1,0.4-0.1c5.5-3.5,12.3-3,15.2-2.5
				c0.7,0.1,1.4-0.5,1.4-1.3V2.5C37.5,1.9,37.1,1.4,36.6,1.2z M35.5,29.6c0,0.8-0.6,1.4-1.4,1.3c-2.9-0.5-4.8-1.1-11.2,1.5
				c-0.1,0-0.3,0.1-0.4,0.1v-26c1.9-1.4,4.1-5.6,12.1-3.3c0.5,0.1,0.9,0.6,0.9,1.2V29.6z"/>
		</g>
	</g>
	<g id="XMLID_38_">
		<g id="XMLID_51_">
			<linearGradient id="XMLID_4_" gradientUnits="userSpaceOnUse" x1="19" y1="27.0303" x2="19" y2="8.0253">
				<stop  offset="0" style="stop-color:#11CDCD"/>
				<stop  offset="1" style="stop-color:#2DDCA9"/>
			</linearGradient>
			<path id="XMLID_52_" class="st0" d="M8.8,8L8.8,8L8.8,8C7,8,6.7,9,6.5,9c-0.5,0.2-1,0.4-1,1v13.2c0,0.8,0.6,1.4,1.4,1.2
				c2.9-0.4,1.7-1,7.2,2.5c0.1,0,0.4,0.1,0.4,0.1V12C13.1,11,14.1,8.1,8.8,8z M31.5,9C31.3,9,31,8,29.3,8h-0.1v0
				c-5.3,0.1-4.3,3-5.7,4v15c0.1,0,0.4-0.1,0.4-0.1c5.5-3.5,4.3-3,7.2-2.5c0.7,0.1,1.4-0.5,1.4-1.2V10C32.5,9.4,32,9.2,31.5,9z"/>
		</g>
	</g>
</g>
</svg>
