<?xml version="1.0" encoding="utf-8"?>
<!-- Generator: Adobe Illustrator 19.0.0, SVG Export Plug-In . SVG Version: 6.00 Build 0)  -->
<svg version="1.1" id="图层_1" xmlns="http://www.w3.org/2000/svg" xmlns:xlink="http://www.w3.org/1999/xlink" x="0px" y="0px"
	 viewBox="0 0 32 32" style="enable-background:new 0 0 32 32;" xml:space="preserve">
<style type="text/css">
	.st0{fill:#666666;}
</style>
<g id="XMLID_6_">
	<g id="XMLID_11_">
		<g id="XMLID_2_">
			<path id="XMLID_3_" class="st0" d="M16,30.3c-0.8,0-1.5-0.3-2.1-0.9l-3.2-3.1H5.3c-2.9,0-5.2-2.3-5.2-5V5.5c0-2.8,2.3-5,5.2-5
				h21.5c2.9,0,5.2,2.3,5.2,5v16c0,2.7-2.4,4.9-5.2,4.9h-5.5l-3.2,3.1C17.5,30.1,16.7,30.3,16,30.3z M5.3,2.5c-1.7,0-3.2,1.4-3.2,3
				v15.9c0,1.6,1.5,3,3.2,3h6.2l3.8,3.6c0.4,0.4,1.1,0.4,1.5,0l3.8-3.6h6.3c1.7,0,3.2-1.3,3.2-2.9v-16c0-1.6-1.5-3-3.2-3H5.3z"/>
		</g>
	</g>
	<g id="XMLID_1_">
		<path id="XMLID_19_" class="st0" d="M16.8,20.4h-2.1v-2.1h2.1V20.4z"/>
		<path id="XMLID_17_" class="st0" d="M18.3,13.1c-1.1,0.7-1.7,1.6-1.6,2.7v0.6H15v-0.7c0-1.4,0.6-2.5,1.8-3.4c1.5-1,2.2-2,2.1-3
			c-0.1-1.5-1-2.2-2.6-2.3c-1.8,0-2.9,0.9-3.4,3L11,9.5c0.6-2.9,2.5-4.2,5.7-4.2c2.6,0.1,4.1,1.4,4.3,3.8
			C21.1,10.6,20.2,12,18.3,13.1L18.3,13.1z"/>
	</g>
	<path id="XMLID_15_" class="st0" d="M28.5,12.5"/>
</g>
</svg>
