<?xml version="1.0" encoding="utf-8"?>
<!-- Generator: Adobe Illustrator 19.0.0, SVG Export Plug-In . SVG Version: 6.00 Build 0)  -->
<svg version="1.1" id="图层_1" xmlns="http://www.w3.org/2000/svg" xmlns:xlink="http://www.w3.org/1999/xlink" x="0px" y="0px"
	 viewBox="-16 19 38 36" style="enable-background:new -16 19 38 36;" xml:space="preserve">
<style type="text/css">
	.st0{fill-rule:evenodd;clip-rule:evenodd;fill:url(#SVGID_1_);}
	.st1{fill:#231815;}
</style>
<g>
	<linearGradient id="SVGID_1_" gradientUnits="userSpaceOnUse" x1="-3.6473" y1="48.8794" x2="10.6472" y2="24.1205">
		<stop  offset="4.566210e-003" style="stop-color:#11CDCD"/>
		<stop  offset="1" style="stop-color:#2DDCA9"/>
	</linearGradient>
	<path class="st0" d="M-5.5,25.5h18c1.1,0,2,0.9,2,2v18c0,1.1-0.9,2-2,2h-18c-1.1,0-2-0.9-2-2v-18C-7.5,26.4-6.6,25.5-5.5,25.5z"/>
	<g id="XMLID_2_">
		<path class="st1" d="M18.7,19.5h-31.4c-1.3,0-2.3,1-2.3,2.3v30.5c0,1.2,1,2.2,2.3,2.2h25.9c0.6,0,0.9-0.4,0.9-1s-0.4-1-1-1H-12
			c-0.6,0-1-0.2-1-2v-27c0-2.1,0.4-2,1-2h30c0.6,0,1,0.4,1,1v32c1.2,0,2-1,2-2.2V21.8C21,20.5,20,19.5,18.7,19.5L18.7,19.5z
			 M10,33.5c0-3.7-3.3-7.1-7-7.1s-7,3.5-7,7.1h2c0-2.4,2.5-5,5-5s5,1.6,5,5c0,2.4-2.5,3.9-5,3.9c-0.6,0-1,0.5-1,1.1v5c0,0,2,0.1,2,0
			v-4C7.2,39,10,36.8,10,33.5L10,33.5z M2,47.5h2v-2H2V47.5z"/>
	</g>
</g>
</svg>
