<?xml version="1.0" encoding="utf-8"?>
<!-- Generator: Adobe Illustrator 19.0.0, SVG Export Plug-In . SVG Version: 6.00 Build 0)  -->
<svg version="1.1" id="图层_1" xmlns="http://www.w3.org/2000/svg" xmlns:xlink="http://www.w3.org/1999/xlink" x="0px" y="0px"
	 viewBox="0 0 38 36" style="enable-background:new 0 0 38 36;" xml:space="preserve">
<style type="text/css">
	.st0{fill-rule:evenodd;clip-rule:evenodd;fill:#999999;}
</style>
<g id="XMLID_2_">
	<g id="XMLID_48_">
		<path id="XMLID_49_" class="st0" d="M20,23.5c6.4,0,11.5-5.1,11.5-11.5c0-6.4-5.1-11.5-11.5-11.5C13.6,0.5,8.5,5.6,8.5,12
			C8.5,18.3,13.6,23.5,20,23.5z M19.5,2.5c5.1,0,10,4.9,10,10c0,5.1-3.9,9-9,9c-5.1,0-10-3.9-10-9C10.5,7.3,14.4,2.5,19.5,2.5z
			 M19.5,25.5c-7.6,0-14,3.7-16.2,10c-0.1,0,2.1,0,2.2-0.1c2.1-5.1,7.6-7.9,14-7.9c6.4,0,11.9,2.9,14.1,8c0.1,0,2.2,0,2.1,0
			C33.5,29.2,27.1,25.5,19.5,25.5z"/>
	</g>
</g>
</svg>
