<?xml version="1.0" encoding="utf-8"?>
<!-- Generator: Adobe Illustrator 19.0.0, SVG Export Plug-In . SVG Version: 6.00 Build 0)  -->
<svg version="1.1" id="图层_1" xmlns="http://www.w3.org/2000/svg" xmlns:xlink="http://www.w3.org/1999/xlink" x="0px" y="0px"
	 viewBox="0 0 32 32" style="enable-background:new 0 0 32 32;" xml:space="preserve">
<style type="text/css">
	.st0{fill:#666666;}
</style>
<g id="XMLID_2_">
	<g id="XMLID_1_">
		<g id="XMLID_10_">
			<path id="XMLID_3_" class="st0" d="M1.4,31.3c-0.2,0-0.5-0.1-0.7-0.2c-0.4-0.2-0.6-0.6-0.6-1V6.3c0-3.1,2.5-5.6,5.6-5.6h20.6
				c3.1,0,5.6,2.5,5.6,5.6v23.8c0,0.4-0.2,0.8-0.6,1.1c-0.4,0.2-0.8,0.2-1.2,0l-13-6.6L1.9,31.2C1.7,31.3,1.5,31.3,1.4,31.3z
				 M5.7,2.7c-2,0-3.6,1.6-3.6,3.6v22.6l14.5-6.3c0.3-0.1,0.7-0.1,1.1,0l12.2,6.2V6.3c0-2-1.6-3.6-3.6-3.6H5.7z"/>
		</g>
	</g>
	<path id="XMLID_7_" class="st0" d="M16,8c-0.3,0-0.5,0.1-0.7,0.4l-1.1,2.2l-2.6,0.4c-0.3,0-0.5,0.2-0.6,0.4c-0.1,0.2,0,0.5,0.2,0.7
		l1.9,1.8l-0.4,2.5c0,0.2,0.1,0.5,0.3,0.6c0.1,0.1,0.3,0.1,0.4,0.1c0.1,0,0.2,0,0.3-0.1l2.3-1.1l2.3,1.1c0.1,0.1,0.2,0.1,0.3,0.1
		c0.1,0,0.3,0,0.4-0.1c0.2-0.1,0.3-0.4,0.3-0.6l-0.4-2.5l1.9-1.8c0.2-0.2,0.3-0.4,0.2-0.7c-0.1-0.2-0.3-0.4-0.6-0.4l-2.6-0.4
		l-1.1-2.2C16.5,8.1,16.3,8,16,8L16,8L16,8z M16,8"/>
</g>
</svg>
