<?xml version="1.0" encoding="utf-8"?>
<!-- Generator: Adobe Illustrator 19.0.0, SVG Export Plug-In . SVG Version: 6.00 Build 0)  -->
<svg version="1.1" id="图层_1" xmlns="http://www.w3.org/2000/svg" xmlns:xlink="http://www.w3.org/1999/xlink" x="0px" y="0px"
	 viewBox="0 0 72 72" style="enable-background:new 0 0 72 72;" xml:space="preserve">
<style type="text/css">
	.st0{fill-rule:evenodd;clip-rule:evenodd;fill:url(#XMLID_13_);}
	.st1{fill:#FFFFFF;}
</style>
<g id="XMLID_11_">
	<g id="XMLID_2_">
		<g id="XMLID_26_">
			
				<linearGradient id="XMLID_13_" gradientUnits="userSpaceOnUse" x1="19.1846" y1="67.1277" x2="55.1906" y2="4.7635" gradientTransform="matrix(1 0 0 1 -1.1876 0)">
				<stop  offset="0" style="stop-color:#11CDCD"/>
				<stop  offset="1" style="stop-color:#2DDCA9"/>
			</linearGradient>
			<circle id="XMLID_27_" class="st0" cx="36" cy="35.9" r="36"/>
		</g>
	</g>
	<g id="XMLID_1_">
		<path id="XMLID_8_" class="st1" d="M54.5,35.9c0,0.9-0.7,1.6-1.6,1.6H19.1c-0.9,0-1.6-0.7-1.6-1.6s0.7-1.6,1.6-1.6h33.8
			C53.8,34.3,54.5,35.1,54.5,35.9z"/>
		<path id="XMLID_6_" class="st1" d="M37.6,19.1v33.8c0,0.9-0.7,1.6-1.6,1.6c-0.9,0-1.6-0.7-1.6-1.6V19.1c0-0.9,0.7-1.6,1.6-1.6
			C36.9,17.4,37.6,18.2,37.6,19.1z"/>
	</g>
</g>
</svg>
