<?xml version="1.0" encoding="utf-8"?>
<!-- Generator: Adobe Illustrator 19.0.0, SVG Export Plug-In . SVG Version: 6.00 Build 0)  -->
<svg version="1.1" id="图层_1" xmlns="http://www.w3.org/2000/svg" xmlns:xlink="http://www.w3.org/1999/xlink" x="0px" y="0px"
	 viewBox="0 0 30 30" style="enable-background:new 0 0 30 30;" xml:space="preserve">
<style type="text/css">
	.st0{fill-rule:evenodd;clip-rule:evenodd;fill:#333333;}
</style>
<g id="XMLID_2_">
	<g id="XMLID_51_">
		<path id="XMLID_52_" class="st0" d="M26.8,0H3.2C1.4,0,0,1.4,0,3.2v18.4C0,23.4,1.2,25,3,25h15l4.5,4.8l0,0c0.3,0.3,0.8,0.3,1.1,0
			c0.3-0.3,0.3-0.8,0-1.1l0,0l-5-5.1C18.5,23.5,18.2,23,18,23H4c-1.2,0-2-0.4-2-2V4c0-1.6,0.4-2,2-2h22c1.6,0,2,0.4,2,2v17
			c0,1.6-0.1,1.9-2,2l-1,0c-0.4,0-1,0.6-1,1c0,0.4,0.6,1,1,1h2c1.8,0,3-1.6,3-3.4V3.2C30,1.4,28.6,0,26.8,0z M6,12c0,1.1,0.9,2,2,2
			c1.1,0,2-0.9,2-2c0-1.1-0.9-2-2-2C6.9,10,6,10.9,6,12z M13,12c0,1.1,0.9,2,2,2s2-0.9,2-2c0-1.1-0.9-2-2-2S13,10.9,13,12z M22,10
			c-1.1,0-2,0.9-2,2c0,1.1,0.9,2,2,2c1.1,0,2-0.9,2-2C24,10.9,23.1,10,22,10z"/>
	</g>
</g>
</svg>
