<?xml version="1.0" encoding="utf-8"?>
<!-- Generator: Adobe Illustrator 19.0.0, SVG Export Plug-In . SVG Version: 6.00 Build 0)  -->
<svg version="1.1" id="图层_1" xmlns="http://www.w3.org/2000/svg" xmlns:xlink="http://www.w3.org/1999/xlink" x="0px" y="0px"
	 viewBox="0 0 45.5 42.7" style="enable-background:new 0 0 45.5 42.7;" xml:space="preserve">
<style type="text/css">
	.st0{fill:#C9C9C9;}
</style>
<path id="XMLID_54_" class="st0" d="M38.2,33.2l-5.4-5.8c2.2-2.7,3.4-6,3.4-9.4c0-8.2-6.7-14.8-14.8-14.8C13.2,3.2,6.5,9.8,6.5,18
	c0,8.2,6.7,14.8,14.8,14.8c2.1,0,4.2-0.4,6.1-1.3c0.6-0.3,0.8-0.9,0.6-1.5s-0.9-0.8-1.5-0.6c-1.6,0.7-3.4,1.1-5.2,1.1
	c-6.9,0-12.6-5.6-12.6-12.5c0-6.9,5.6-12.5,12.6-12.5c6.9,0,12.6,5.6,12.6,12.5c0,3.3-1.2,6.3-3.5,8.7c-0.4,0.5-0.4,1.2,0,1.6
	c0,0,0.1,0,0.1,0.1c0,0,0,0.1,0.1,0.1l5.9,6.3c0.2,0.2,0.5,0.4,0.8,0.4c0.3,0,0.6-0.1,0.8-0.3C38.6,34.4,38.6,33.7,38.2,33.2z"/>
</svg>
