<?xml version="1.0" encoding="utf-8"?>
<!-- Generator: Adobe Illustrator 19.0.0, SVG Export Plug-In . SVG Version: 6.00 Build 0)  -->
<svg version="1.1" id="图层_1" xmlns="http://www.w3.org/2000/svg" xmlns:xlink="http://www.w3.org/1999/xlink" x="0px" y="0px"
	 viewBox="0 0 25 25" style="enable-background:new 0 0 25 25;" xml:space="preserve">
<style type="text/css">
	.st0{fill:#ACACAC;}
</style>
<path id="XMLID_2_" class="st0" d="M21.7,9.6c-0.3-0.1-0.6-0.1-1-0.1l-2-0.1c0.3-1.5,1-3.6,1-5c0-3.1-2.4-4-4-4
	c-3.3,0-4.1,2.3-4.1,3.9v0.6c0,3.2-1.8,5.6-4.9,5.6h-3c-1.3,0-3,1.7-3,3v8c0,3,0.3,3,3.3,3h2.9c0.3,0,0.8-0.7,0.8-1v-11
	c3.5-0.3,6-3.4,6-7v-1c0-1,1-2,2-2c1.4,0,2,1,2,2c0,2.6-0.7,4.5-1,5.4c-0.1,0.2,0,1.4,0.1,1.5c0.1,0.2,0.8,0,0.9,0.1h3
	c0.3,0,0.8-0.1,1,0c1.5,0.4,1.4,1.5,1,3c-0.5,1.7-1.8,6.4-2,7c-0.7,1.1-1.4,1-2,1c0,0,0,0,0,0h-8c-0.3,0-1,0.7-1,1
	c0,0.3,0.3,1,0.6,1h8.6c0,0,0.1,0,0.1,0c1,0,2.1-0.1,2.6-1c0,0,0,0,0,0c0.1-0.3,2.5-7.1,3-9C25.3,12.3,23.9,10.2,21.7,9.6L21.7,9.6z
	 M5.7,22.4c0,0-1.5,0-2,0c-1.4,0-1-0.3-1-2v-7c0-0.6,0.4-1,1-1h2V22.4z" />
</svg>
