<?xml version="1.0" encoding="utf-8"?>
<!-- Generator: Adobe Illustrator 19.0.0, SVG Export Plug-In . SVG Version: 6.00 Build 0)  -->
<svg version="1.1" id="图层_1" xmlns="http://www.w3.org/2000/svg" xmlns:xlink="http://www.w3.org/1999/xlink" x="0px" y="0px"
	 viewBox="0 0 38 36" style="enable-background:new 0 0 38 36;" xml:space="preserve">
<style type="text/css">
	.st0{fill:#999999;}
</style>
<g id="XMLID_2_">
	<path class="st0" d="M34.7,0.5H3.3C2,0.5,1,1.5,1,2.8v30.5c0,1.2,1,2.2,2.3,2.2h25.9c0.6,0,0.9-0.4,0.9-1c0-0.6-0.4-1-1-1H4
		c-0.6,0-1-0.2-1-2v-27c0-2.1,0.4-2,1-2h30c0.6,0,1,0.4,1,1v32c1.2,0,2-1,2-2.2V2.8C37,1.5,36,0.5,34.7,0.5L34.7,0.5z M26,14.5
		c0-3.7-3.3-7.1-7-7.1c-3.7,0-7,3.5-7,7.1c0,0,2,0,2,0c0-2.4,2.5-5,5-5c2.5,0,5,1.6,5,5c0,2.4-2.5,3.9-5,3.9c-0.6,0-1,0.5-1,1.1v5
		c0,0,2,0.1,2,0v-4C23.2,20,26,17.8,26,14.5L26,14.5z M18,28.5h2v-2h-2V28.5z M18,28.5"/>
</g>
</svg>
