<?xml version="1.0" encoding="utf-8"?>
<!-- Generator: Adobe Illustrator 19.0.0, SVG Export Plug-In . SVG Version: 6.00 Build 0)  -->
<svg version="1.1" id="图层_1" xmlns="http://www.w3.org/2000/svg" xmlns:xlink="http://www.w3.org/1999/xlink" x="0px" y="0px"
	 viewBox="0 0 38 36" style="enable-background:new 0 0 38 36;" xml:space="preserve">
<style type="text/css">
	.st0{fill:#999999;}
</style>
<path id="XMLID_2_" class="st0" d="M34,26.9l-2.9-5.2v-5.8c0-2.3-0.8-4.6-2.2-6.7c-1.5-2.1-3.5-3.7-5.8-4.6c0,0,0,0,0,0
	c-0.1,0-0.2-0.1-0.5-0.2V4.1c0-1.9-1.5-3.5-3.4-3.5c-1.9,0-3.4,1.6-3.4,3.5v0.3c-0.3,0.1-0.4,0.1-0.5,0.1c0,0,0,0,0,0
	c-2.3,0.9-4.4,2.5-5.9,4.6c-1.5,2.1-2.3,4.5-2.3,6.7v5.8l-3.1,5.5c-0.4,0.7-0.4,1.5,0,2.1c0.4,0.7,1.1,1.1,1.8,1.1h7.6
	c0.4,2.9,2.9,5.1,5.8,5.1c2.9,0,5.4-2.2,5.8-5.1h7.6c1.2,0,2.1-1,2.1-2.1C34.5,27.8,34.3,27.3,34,26.9L34,26.9z M19,2.4
	c0.9,0,1.6,0.7,1.6,1.6c-0.2,0-0.4-0.1-0.6-0.1c-0.1,0-0.2,0-0.2,0c0,0-0.1,0-0.1,0c-0.2,0-0.5-0.1-0.8-0.1c-0.3,0-0.6,0-0.8,0.1
	c0,0-0.1,0-0.1,0c-0.1,0-0.2,0-0.2,0c-0.2,0-0.3,0.1-0.5,0.1C17.4,3.1,18.1,2.4,19,2.4L19,2.4z M19,33.7c-1.9,0-3.6-1.4-4-3.3h8
	C22.6,32.3,20.9,33.7,19,33.7L19,33.7z M32.4,28.6H5.6c-0.1,0-0.2-0.1-0.3-0.1c-0.1-0.1-0.1-0.2,0-0.3l3.2-5.7
	c0.1-0.1,0.1-0.3,0.1-0.5v-6c0-4,3-8.1,7-9.6c0.1,0,1.2-0.4,2.2-0.5c0.1,0,0.1,0,0.2,0c0.1,0,0.3,0,0.4-0.1c0.2,0,0.4-0.1,0.5-0.1
	c0.2,0,0.3,0,0.5,0.1c0.1,0,0.3,0,0.4,0.1c0.1,0,0.1,0,0.2,0c1.1,0.2,2.2,0.5,2.4,0.6c3.9,1.5,6.9,5.6,6.9,9.6v6
	c0,0.2,0,0.3,0.1,0.5l3,5.5c0,0.1,0.1,0.1,0.2,0.2c0.1,0.1,0.1,0.1,0.1,0.2C32.7,28.5,32.6,28.6,32.4,28.6L32.4,28.6z M32.4,28.6"/>
</svg>
