<?xml version="1.0" encoding="utf-8"?>
<!-- Generator: Adobe Illustrator 19.0.0, SVG Export Plug-In . SVG Version: 6.00 Build 0)  -->
<svg version="1.1" id="图层_1" xmlns="http://www.w3.org/2000/svg" xmlns:xlink="http://www.w3.org/1999/xlink" x="0px" y="0px"
	 viewBox="0 0 38 36" style="enable-background:new 0 0 38 36;" xml:space="preserve">
<style type="text/css">
	.st0{fill:#11CDCD;}
	.st1{fill:url(#XMLID_8_);}
</style>
<path id="XMLID_2_" d="M34,26.8l-2.9-5.2v-5.8c0-2.3-0.8-4.6-2.2-6.7c-1.5-2.1-3.5-3.7-5.8-4.6c0,0,0,0,0,0c-0.1,0-0.2-0.1-0.5-0.2
	V4c0-1.9-1.5-3.5-3.4-3.5c-1.9,0-3.4,1.6-3.4,3.5v0.3c-0.3,0.1-0.4,0.1-0.5,0.1c0,0,0,0,0,0C12.7,5.4,10.6,7,9.1,9.1
	c-1.5,2.1-2.3,4.5-2.3,6.7v5.8l-3.1,5.5c-0.4,0.7-0.4,1.5,0,2.1c0.4,0.7,1.1,1.1,1.8,1.1h7.6c0.4,2.9,2.9,5.1,5.8,5.1
	c2.9,0,5.4-2.2,5.8-5.1h7.6c1.2,0,2.1-1,2.1-2.1C34.5,27.7,34.3,27.2,34,26.8L34,26.8z M19,2.3c0.9,0,1.6,0.7,1.6,1.6
	c-0.2,0-0.4-0.1-0.6-0.1c-0.1,0-0.2,0-0.2,0c0,0-0.1,0-0.1,0c-0.2,0-0.5-0.1-0.8-0.1c-0.3,0-0.6,0-0.8,0.1c0,0-0.1,0-0.1,0
	c-0.1,0-0.2,0-0.2,0c-0.2,0-0.3,0.1-0.5,0.1C17.4,3,18.1,2.3,19,2.3L19,2.3z M19,33.7c-1.9,0-3.6-1.4-4-3.3h8
	C22.6,32.3,20.9,33.7,19,33.7L19,33.7z M32.4,28.5H5.6c-0.1,0-0.2-0.1-0.3-0.1c-0.1-0.1-0.1-0.2,0-0.3l3.2-5.7
	c0.1-0.1,0.1-0.3,0.1-0.5v-6c0-4,3-8.1,7-9.6c0.1,0,1.2-0.4,2.2-0.5c0.1,0,0.1,0,0.2,0c0.1,0,0.3,0,0.4-0.1c0.2,0,0.4-0.1,0.5-0.1
	c0.2,0,0.3,0,0.5,0.1c0.1,0,0.3,0,0.4,0.1c0.1,0,0.1,0,0.2,0c1.1,0.2,2.2,0.5,2.4,0.6c3.9,1.5,6.9,5.6,6.9,9.6v6
	c0,0.2,0,0.3,0.1,0.5l3,5.5c0,0.1,0.1,0.1,0.2,0.2c0.1,0.1,0.1,0.1,0.1,0.2C32.7,28.4,32.6,28.5,32.4,28.5L32.4,28.5z M32.4,28.5"/>
<polygon id="XMLID_17_" class="st0" points="10.4,24.5 11.6,24.5 10.4,24.5 "/>
<linearGradient id="XMLID_8_" gradientUnits="userSpaceOnUse" x1="18.9996" y1="24.4673" x2="18.9996" y2="9.5327">
	<stop  offset="0" style="stop-color:#11CDCD"/>
	<stop  offset="1" style="stop-color:#2DDCA9"/>
</linearGradient>
<path id="XMLID_11_" class="st1" d="M22.2,24.5h4.2c0.6,0,1.1-0.5,1.1-1.2c0-0.3-0.1-0.6-0.3-0.8l0,0l-1.6-2.9v-3.2
	c0-1.2-0.4-2.6-1.2-3.7c-0.8-1.2-1.9-2.1-3.2-2.6c0,0,0,0,0,0c0,0-0.1,0-0.3-0.1V9.8c0-0.4-0.8-0.3-1.9-0.3s-1.9-0.1-1.9,0.3V10
	c-0.1,0-0.2,0.1-0.2,0.1c0,0,0,0,0,0c-1.3,0.5-2.4,1.4-3.3,2.6c-0.8,1.2-1.3,2.5-1.3,3.7v3.2l-1.7,3.1c-0.2,0.4-0.2,0.8,0,1.2
	c0.2,0.4,0.6,0.6,1,0.6h4.2"/>
</svg>
