<?xml version="1.0" encoding="utf-8"?>
<!-- Generator: Adobe Illustrator 19.0.0, SVG Export Plug-In . SVG Version: 6.00 Build 0)  -->
<svg version="1.1" id="图层_1" xmlns="http://www.w3.org/2000/svg" xmlns:xlink="http://www.w3.org/1999/xlink" x="0px" y="0px"
	 viewBox="0 0 25 25" style="enable-background:new 0 0 25 25;" xml:space="preserve">
<style type="text/css">
	.st0{fill:#ACACAC;}
</style>
<g>
	<g id="XMLID_29_">
		<path id="XMLID_30_" class="st0" d="M22.5,14.5c-0.5,0-0.7,0.5-0.7,1v4.3c0,1-0.9,2.6-1.7,2.6H3.9c-0.9,0-1.7-1.6-1.7-2.6V4.4
			c0-0.9,0.9-1.7,1.7-1.7h4.3c0.5,0,1.2-0.2,1.2-0.7s-0.4-1-1-1H4.2C2.1,1,0.5,2.4,0.5,4.3v15.7c0,2.1,1.7,3.9,3.7,3.9h15.7
			c1.9,0,3.6-1.8,3.6-3.9v-4.6C23.5,14.9,23.1,14.5,22.5,14.5z M22.5,1h-8.2c-0.5,0-1,0.4-1,1s0.3,0.7,0.8,0.7h6L9.6,14.1
			c-0.4,0.4-0.4,1,0,1.4c0.2,0.2,0.4,0.3,0.7,0.3c0.3,0,0.5-0.1,0.7-0.3L21.8,3.6v6.8c0,0.5,0.3,0.9,0.9,0.9s0.9-0.5,0.9-1V2
			C23.5,1.4,23.1,1,22.5,1z"/>
	</g>
</g>
</svg>
