<?xml version="1.0" encoding="utf-8"?>
<!-- Generator: Adobe Illustrator 19.0.0, SVG Export Plug-In . SVG Version: 6.00 Build 0)  -->
<svg version="1.1" id="图层_1" xmlns="http://www.w3.org/2000/svg" xmlns:xlink="http://www.w3.org/1999/xlink" x="0px" y="0px"
	 viewBox="-1.9 0.2 27.8 27.7" style="enable-background:new -1.9 0.2 27.8 27.7;" xml:space="preserve">
<style type="text/css">
	.st0{fill:#ACACAC;}
</style>
<path class="st0" d="M14.3,14L25.1,3.2c0.6-0.6,0.6-1.6,0-2.3c-0.6-0.6-1.6-0.6-2.3,0L12,11.7L1.2,0.9c-0.6-0.6-1.6-0.6-2.3,0
	c-0.6,0.6-0.6,1.6,0,2.3L9.7,14L-1.1,24.8c-0.6,0.6-0.6,1.6,0,2.3c0.6,0.6,1.6,0.6,2.3,0L12,16.3l10.8,10.8c0.6,0.6,1.6,0.6,2.3,0
	c0.6-0.6,0.6-1.6,0-2.3L14.3,14z"/>
</svg>
