<?xml version="1.0" encoding="utf-8"?>
<!-- Generator: Adobe Illustrator 19.0.0, SVG Export Plug-In . SVG Version: 6.00 Build 0)  -->
<svg version="1.1" id="图层_1" xmlns="http://www.w3.org/2000/svg" xmlns:xlink="http://www.w3.org/1999/xlink" x="0px" y="0px"
	 viewBox="9.2 4.8 27.9 29.1" style="enable-background:new 9.2 4.8 27.9 29.1;" xml:space="preserve">
<style type="text/css">
	.st0{fill:#2DDCA9;}
</style>
<path class="st0" d="M26.5,5.8c-3.5-1-7.1-0.5-10.2,1.4C13.1,9,10.9,12,10,15.7c-1.9,7.5,2.4,15.1,9.5,17.1c1.2,0.3,2.3,0.5,3.5,0.5
	c2.4,0,4.9-0.7,7-2.1c0.3-0.2,0.4-0.6,0.2-1c-0.2-0.3-0.6-0.4-0.9-0.2c-2.9,1.8-6.2,2.3-9.5,1.4c-6.5-1.8-10.3-8.7-8.6-15.4
	c0.8-3.2,2.9-6,5.7-7.6c2.8-1.7,6.1-2.1,9.2-1.3c3.1,0.9,5.8,3,7.4,5.9c1.6,2.9,2.1,6.3,1.2,9.6c-0.3,1.1-0.8,2.3-1.4,3.3
	c-0.2,0.3-0.1,0.8,0.2,1c0.3,0.2,0.7,0.1,0.9-0.2c0.7-1.2,1.2-2.4,1.5-3.7C38,15.4,33.7,7.8,26.5,5.8L26.5,5.8z M23,10.2
	c-0.4,0-0.7,0.3-0.7,0.7v8.4c0,0.4,0.3,0.7,0.7,0.7h6.8c0.4,0,0.7-0.3,0.7-0.7c0-0.4-0.3-0.7-0.7-0.7h-6.1v-7.7
	C23.7,10.5,23.4,10.2,23,10.2L23,10.2z M23,10.2"/>
</svg>
